<svg height="512" viewBox="0 0 512 512" width="512" xmlns="http://www.w3.org/2000/svg"><g id="_36-night" data-name="36-night"><g id="linear_color" data-name="linear color"><path d="m392 276c-1.348 0-2.7.023-4.058.07a132.042 132.042 0 0 0 -2.063-19.7 100.181 100.181 0 0 0 73.757-81.787 12 12 0 0 0 -16.371-12.91 57 57 0 0 1 -69.38-83.573 12 12 0 0 0 -9.741-18.467c-1.121-.034-2.253-.066-3.384-.066a100.142 100.142 0 0 0 -99.341 88.549c-1.8-.073-3.6-.119-5.419-.119-71.47 0-129.856 57.1-131.942 128.07-1.355-.047-2.71-.07-4.058-.07a116 116 0 0 0 0 232h272a116 116 0 0 0 0-232zm-47.64-190.648a81.034 81.034 0 0 0 86.339 104 76.216 76.216 0 0 1 -51.26 43.893 132.521 132.521 0 0 0 -94.21-81.985 76.179 76.179 0 0 1 59.131-65.908zm47.64 398.648h-272a92 92 0 0 1 0-184c3.547-.18 7.183.712 10.679 0 4.876.142 10.922.347 14.351-3.8 4.442-4.27 2.926-10.8 2.97-16.2a108 108 0 0 1 216 0c.045 5.4-1.472 11.933 2.97 16.2 3.42 4.141 9.486 3.946 14.351 3.8 3.495.713 7.132-.18 10.679 0a92 92 0 0 1 0 184z"/></g></g></svg>