<?xml version="1.0"?>
<svg xmlns="http://www.w3.org/2000/svg" xmlns:xlink="http://www.w3.org/1999/xlink" xmlns:svgjs="http://svgjs.com/svgjs" version="1.1" width="512" height="512" x="0" y="0" viewBox="0 0 512 512" style="enable-background:new 0 0 512 512" xml:space="preserve"><g><g xmlns="http://www.w3.org/2000/svg"><path d="m143.03 441.187c-7.706-3.042-16.418.739-19.46 8.445l-16.523 41.857c-3.042 7.706.739 16.418 8.445 19.46 7.706 3.042 16.418-.739 19.46-8.445l16.523-41.857c3.042-7.706-.739-16.419-8.445-19.46z" fill="#ffffff" data-original="#000000" style=""/><path d="m68.03 441.187c-7.706-3.042-16.418.739-19.46 8.445l-16.523 41.857c-3.042 7.706.739 16.418 8.445 19.46 7.706 3.042 16.418-.739 19.46-8.445l16.523-41.857c3.042-7.706-.739-16.419-8.445-19.46z" fill="#ffffff" data-original="#000000" style=""/><path d="m218.03 441.187c-7.706-3.042-16.418.739-19.46 8.445l-16.523 41.857c-3.042 7.706.739 16.418 8.445 19.46 7.706 3.042 16.418-.739 19.46-8.445l16.523-41.857c3.042-7.706-.739-16.419-8.445-19.46z" fill="#ffffff" data-original="#000000" style=""/><path d="m293.03 441.187c-7.706-3.042-16.418.739-19.46 8.445l-16.523 41.857c-3.042 7.706.739 16.418 8.445 19.46 7.706 3.042 16.418-.739 19.46-8.445l16.523-41.857c3.042-7.706-.739-16.419-8.445-19.46z" fill="#ffffff" data-original="#000000" style=""/><path d="m368.03 441.187c-7.706-3.042-16.418.739-19.46 8.445l-16.523 41.857c-3.042 7.706.739 16.418 8.445 19.46 7.706 3.042 16.418-.739 19.46-8.445l16.523-41.857c3.042-7.706-.739-16.419-8.445-19.46z" fill="#ffffff" data-original="#000000" style=""/><path d="m421.407 150.985c-7.179-84.447-78.623-150.985-165.407-150.985-86.217 0-157.201 66.466-164.399 150.851-51.595 6.599-91.601 50.789-91.601 104.149 0 50.964 36.5 93.557 84.73 103.029l-9.205 23.32c-3.042 7.706.739 16.418 8.445 19.46 7.706 3.042 16.418-.739 19.46-8.445l12.775-32.364h42.747l-8.427 21.349c-3.042 7.706.739 16.418 8.445 19.46 7.706 3.042 16.418-.739 19.46-8.445l12.775-32.364h42.747l-8.427 21.349c-3.042 7.706.739 16.418 8.445 19.46 7.706 3.042 16.418-.739 19.46-8.445l12.775-32.364h42.747l-8.427 21.349c-3.042 7.706.739 16.418 8.445 19.46 7.706 3.042 16.418-.739 19.46-8.445l12.775-32.364h42.747l-8.427 21.349c-3.042 7.706.739 16.418 8.445 19.46 7.706 3.042 16.418-.739 19.46-8.445l12.943-32.788c53.522-4.757 95.627-49.838 95.627-104.576 0-53.01-39.489-96.971-90.593-104.015zm-14.407 179.015h-302c-41.355 0-75-33.645-75-75 0-36.852 26.724-67.558 61.805-73.814 1.684 17.187 6.021 33.884 12.972 49.813 2.461 5.64 7.972 9.004 13.756 9.004 2.002 0 4.039-.404 5.992-1.256 7.593-3.313 11.062-12.155 7.749-19.748-7.456-17.085-11.248-35.256-11.273-54.01.004-74.434 60.563-134.989 134.999-134.989 70.285 0 128.287 53.198 135.29 121.162-22.082 3.293-42.458 13.513-58.536 29.592-5.858 5.858-5.858 15.355 0 21.213 2.929 2.929 6.768 4.394 10.606 4.394s7.678-1.464 10.606-4.394c14.166-14.166 33.001-21.967 53.034-21.967 41.355 0 75 33.645 75 75s-33.645 75-75 75z" fill="#ffffff" data-original="#000000" style=""/></g></g></svg>
