<svg id="Capa_1" enable-background="new 0 0 511.13 511.13" height="512" viewBox="0 0 511.13 511.13" width="512" xmlns="http://www.w3.org/2000/svg"><g><path d="m124.235 359.13h30v64h-30z" fill="#00bff0"/><path d="m186.235 359.13h30v64h-30z" fill="#00bff0"/><path d="m248.235 359.13h30v64h-30z" fill="#00a9de"/><path d="m124.235 455.13h30v56h-30z" fill="#00bff0"/><path d="m186.235 455.13h30v56h-30z" fill="#00bff0"/><g fill="#00a9de"><path d="m248.235 455.13h30v56h-30z"/><path d="m201.235 359.13h15v64h-15z"/><path d="m201.235 455.13h15v56h-15z"/></g><path d="m508.895 214.49c-15.847 27.12-30.034 56.181-70.43 79.5-15.89 9.17-33 15.44-50.87 18.64-83.623-21.889-55.522-14.534-130.36-34.12l-34.92-158.49-14.47-3.96c19.109-69.875 82.214-115.563 150.91-115.93l26.3-.13-13.27 22.7c-49.531 84.711 11.389 191.93 110.11 191.93 1.086 0-4.331.027 27-.14z" fill="#fc0"/><path d="m508.895 214.49c-15.847 27.12-30.034 56.181-70.43 79.5-15.89 9.17-33 15.44-50.87 18.64l-67.62-17.7v-289.7c23.029-6.012 37.62-5.094 65.08-5.23l-13.27 22.7c-49.531 84.711 11.389 191.93 110.11 191.93 1.086 0-4.331.027 27-.14z" fill="#ff9e22"/><path d="m400.235 303.13c0 34.792-28.152 63-63 63h-252c-45.77 0-83-37.23-83-83 0-45.839 37.102-83 83-83h14.01c6.99-51.55 49.5-91.96 101.99-95.72 66.235-4.517 56 49.766 56 112.571l43.5 67.915 39.543 14.809c34.74-.001 59.957-31.315 59.957 3.425z" fill="#00607f"/><path d="m400.235 303.13c0 34.792-28.152 63-63 63h-136v-261.72c66.235-4.517 119 47.915 119 110.72v25h17c34.74 0 63 28.26 63 63z" fill="#00465f"/></g></svg>