<svg id="Capa_1" enable-background="new 0 0 506.66 506.66" height="512" viewBox="0 0 506.66 506.66" width="512" xmlns="http://www.w3.org/2000/svg"><g><path d="m72 404.395h30v30h-30z" fill="#e6f8fc"/><path d="m132 404.395h30v30h-30z" fill="#e6f8fc"/><path d="m192 404.395h30v30h-30z" fill="#cef2fb"/><g fill="#e6f8fc"><path d="m42 468.395h30v30h-30z"/><path d="m102 468.395h30v30h-30z"/><path d="m162 468.395h30v30h-30z"/></g><path d="m252 404.395h30v30h-30z" fill="#cef2fb"/><path d="m222 468.395h30v30h-30z" fill="#cef2fb"/><path d="m506.66 222.755c-15.847 27.12-30.034 56.181-70.43 79.5-15.89 9.17-33 15.44-50.87 18.64-83.623-21.889-55.522-14.534-130.36-34.12l-34.92-158.49-14.47-3.96c19.109-69.875 82.214-115.563 150.91-115.93l26.3-.13-13.27 22.7c-49.531 84.711 11.389 191.93 110.11 191.93 1.086 0-4.331.027 27-.14z" fill="#fc0"/><path d="m506.66 222.755c-15.847 27.12-30.034 56.181-70.43 79.5-15.89 9.17-33 15.44-50.87 18.64l-67.62-17.7v-289.7c23.029-6.012 37.62-5.094 65.08-5.23l-13.27 22.7c-49.531 84.711 11.389 191.93 110.11 191.93 1.086 0-4.331.027 27-.14z" fill="#ff9e22"/><path d="m398 311.395c0 34.792-28.152 63-63 63h-252c-45.77 0-83-37.23-83-83 0-45.839 37.102-83 83-83h14.01c6.99-51.55 49.5-91.96 101.99-95.72 66.235-4.517 78.106 47.213 78.106 110.018l16.851 70.979 44.936 11.745c34.741-.001 59.107-28.762 59.107 5.978z" fill="#00607f"/><path d="m398 311.395c0 34.792-28.152 63-63 63h-136v-261.72c66.235-4.517 119 47.915 119 110.72v25h17c34.74 0 63 28.26 63 63z" fill="#00465f"/></g></svg>