<svg id="Capa_1" enable-background="new 0 0 512 512" height="512" viewBox="0 0 512 512" width="512" xmlns="http://www.w3.org/2000/svg" xmlns:xlink="http://www.w3.org/1999/xlink"><linearGradient id="SVGID_1_" gradientUnits="userSpaceOnUse" x1="256" x2="256" y1="496" y2="346.007"><stop offset="0" stop-color="#fd5900"/><stop offset="1" stop-color="#ffde00"/></linearGradient><linearGradient id="SVGID_2_" gradientUnits="userSpaceOnUse" x1="256" x2="256" y1="316" y2="16"><stop offset="0" stop-color="#ffe59a"/><stop offset="1" stop-color="#ffffd5"/></linearGradient><g><g><g><path d="m196 406h-35.728l19.146-38.291c3.706-7.412.703-16.421-6.709-20.127-7.427-3.677-16.406-.703-20.127 6.709l-30 60c-2.329 4.644-2.08 10.166.659 14.59s7.559 7.119 12.759 7.119h35.728l-19.146 38.291c-3.706 7.412-.703 16.421 6.709 20.127 7.48 3.714 16.436.652 20.127-6.709l30-60c2.329-4.644 2.08-10.166-.659-14.59s-7.559-7.119-12.759-7.119zm192.759 7.119c-2.739-4.424-7.559-7.119-12.759-7.119h-35.728l19.146-38.291c3.706-7.412.703-16.421-6.709-20.127-7.397-3.677-16.421-.703-20.127 6.709l-30 60c-2.329 4.644-2.08 10.166.659 14.59s7.559 7.119 12.759 7.119h35.728l-19.146 38.291c-3.706 7.412-.703 16.421 6.709 20.127 7.48 3.714 16.436.652 20.127-6.709l30-60c2.329-4.644 2.08-10.166-.659-14.59z" fill="url(#SVGID_1_)"/></g></g><g><g><path d="m450.634 141.024c-5.127-69.799-63.545-125.024-134.634-125.024-44.912 0-86.895 22.896-111.87 60.396-42.993-4.058-84.712 21.05-102.891 60.293-54.975-7.369-101.254 36.298-101.239 89.311 0 49.629 41.371 90 91 90h330c49.629 0 91-40.371 91-90 0-38.569-25.756-72.554-61.366-84.976z" fill="url(#SVGID_2_)"/></g></g></g></svg>